<?xml version="1.0" encoding="UTF-8" standalone="no"?>
<!-- Created with Inkscape (http://www.inkscape.org/) -->

<svg
   width="173.339mm"
   height="192.94235mm"
   viewBox="0 0 173.339 192.94236"
   version="1.1"
   id="svg1"
   xml:space="preserve"
   inkscape:version="1.4.2 (ebf0e940d0, 2025-05-08)"
   sodipodi:docname="app_logo.svg"
   xmlns:inkscape="http://www.inkscape.org/namespaces/inkscape"
   xmlns:sodipodi="http://sodipodi.sourceforge.net/DTD/sodipodi-0.dtd"
   xmlns="http://www.w3.org/2000/svg"
   xmlns:svg="http://www.w3.org/2000/svg"><sodipodi:namedview
     id="namedview1"
     pagecolor="#ffffff"
     bordercolor="#666666"
     borderopacity="1.0"
     inkscape:showpageshadow="2"
     inkscape:pageopacity="0.0"
     inkscape:pagecheckerboard="0"
     inkscape:deskcolor="#d1d1d1"
     inkscape:document-units="mm"
     inkscape:zoom="0.71535494"
     inkscape:cx="287.96893"
     inkscape:cy="322.21767"
     inkscape:window-width="1920"
     inkscape:window-height="1011"
     inkscape:window-x="0"
     inkscape:window-y="0"
     inkscape:window-maximized="1"
     inkscape:current-layer="layer1" /><defs
     id="defs1" /><g
     inkscape:label="Layer 1"
     inkscape:groupmode="layer"
     id="layer1"
     transform="translate(-28.330488,-63.159736)"><path
       style="fill:#d22828;stroke:none"
       d="m 185.79168,159.05348 c 0,-8.84252 -1.51447,-15.74733 -7.55832,-22.57261 -3.1586,-3.56698 -10.91895,-5.91222 -11.1389,-10.94128 h -0.35278 c -0.0799,3.87289 -0.83304,8.47538 -2.46945,11.99445 h -0.35277 c 0.44243,-7.5797 -5.41665,-8.06172 -10.86235,-9.63715 -1.17039,-0.33859 -1.64527,-1.78207 -2.90143,-1.94409 -1.21495,-0.1567 -2.59265,0.90491 -3.87511,0.99791 v 0.35277 c 6.93581,0 7.19305,8.3754 9.20543,13.75834 1.41788,3.79272 4.51593,5.31959 8.08068,3.52777 -1.04776,5.17805 -7.17813,1.82452 -9.17222,5.99723 3.20364,-0.28042 4.46431,2.36049 7.76111,0.70555 -1.35401,3.97145 -4.94394,1.70268 -6.79234,4.28559 -2.36053,3.29856 2.17873,3.1256 3.97011,2.06441 -0.37581,3.34618 -4.14547,3.48613 -5.52903,6.35027 -5.67043,11.73846 -11.96206,23.77091 -25.16263,28.57473 l -1.05834,-3.175 h -0.35277 c 0.0764,3.68033 4.09915,10.15569 -1.05834,11.99445 l 0.35278,-2.82223 c -1.58887,0.95649 -3.08102,1.95387 -4.93889,2.30449 -1.47473,0.27832 -3.69888,-0.2047 -4.63864,1.30359 -1.686,2.70599 2.7606,2.21431 3.80079,2.61453 0.99699,0.3836 1.58764,1.45645 2.60691,1.88829 2.36382,1.00149 6.67738,1.75169 9.16705,1.76688 l -0.70555,-1.05833 v -0.35278 l 4.58611,1.76389 0.35278,-1.41111 c 2.6002,0.52614 3.38106,2.55082 3.88055,4.93889 l -7.05555,-2.11667 -4.23334,1.05833 c 0.19974,1.15548 1.98903,4.67049 2.11667,1.76389 1.27941,0.81042 3.25172,6.56362 4.93889,4.23334 2.16643,1.06879 2.40438,3.12394 1.76389,5.29166 h -0.35278 c -0.42426,-2.03447 -5.69017,-4.87149 -7.76111,-4.93889 l 1.86569,5.3374 -0.45458,3.48205 1.05833,-0.70556 c 0.21356,2.56257 -0.15202,4.27172 -2.46944,5.64445 1.74467,-4.78704 -2.71978,-8.26926 -2.82222,-13.05278 -2.36809,-0.0282 -4.82164,-4.34136 -6.35,-1.76389 h -0.35278 c -0.044,-3.72268 -3.27147,-3.9481 -5.09813,-6.70795 -0.7168,-1.083 -1.21775,-3.28454 -2.6823,-3.58195 -1.69328,-0.34386 -4.52112,1.8218 -6.68346,1.82323 v -0.35277 h 2.46945 c -0.53293,-3.34162 -5.2627,-1.85609 -4.23334,-6.35 3.04176,1.78838 4.03191,-3.32224 6.70278,-4.23334 -0.5507,3.56148 3.20611,2.31894 2.52198,0.0204 -0.42176,-1.41703 -2.06718,-1.42366 -3.22753,-1.82105 -2.08376,-0.71361 -3.94173,-2.05895 -5.64445,-3.42324 -7.480671,-5.99387 -15.675101,-19.22516 -27.163891,-15.51079 -7.97361,2.57789 -9.73728,15.55857 0.35278,15.79578 v 0.35278 c -3.49525,1.68205 -7.96795,-2.11434 -10.58333,0.70556 l 7.05555,3.88055 c -2.40384,2.91194 -5.02287,-0.50206 -7.35607,1.24806 -1.42204,1.06666 -1.13197,3.30474 0.65983,3.79236 1.15371,0.31398 2.21028,-0.67557 3.16846,-1.15986 -0.92038,2.46873 -3.96319,3.70358 -4.18977,6.35 -0.28929,3.37889 2.58979,7.46364 4.26164,10.23055 5.50997,9.11905 14.61346,17.10579 24.62258,20.92549 21.644541,8.26005 45.688021,3.41192 59.709271,-15.9866 5.40352,-7.47581 6.2619,-16.96426 11.35285,-24.34166 1.28471,-1.8617 6.40049,-6.11146 3.02121,-7.76112 v -0.35277 c 6.65299,-2.72877 15.66863,-3.48358 20.46111,3.175 -2.57142,-1.0564 -4.95119,-2.12833 -7.76111,-2.40929 -16.98192,-1.69797 -18.54051,20.05875 -25.05212,30.98429 -7.11217,11.93318 -19.02574,20.3529 -32.80344,22.48086 -19.88882,3.07184 -42.240981,-5.08078 -55.678721,-20.01142 -12.79204,-14.21318 -15.6261,-39.49457 -2.11667,-54.32642 7.69403,-8.44718 18.97848,-8.67219 28.86762,-4.43666 3.83395,1.64208 7.638701,5.22523 11.994441,5.3227 3.8352,0.0858 4.08903,-4.31266 7.40834,-5.47351 l -0.35278,-3.175 -7.05556,4.23334 0.35278,-2.46945 -1.05833,0.35278 c 1.22807,-3.4838 -4.49739,-3.62157 -6.70278,-3.88056 1.89193,-4.26369 -6.815731,-3.90995 -7.055561,-5.64444 l -7.76111,1.76389 2.11667,-3.52778 c 1.21757,2.32942 2.78104,0.15228 4.58611,-0.35278 1.14546,1.83305 3.30225,0.14563 4.93889,-0.35278 -0.79515,-2.50835 -4.36784,-4.55712 -6.70278,-5.64444 v -0.35278 l 4.58611,-0.35278 -0.70555,1.41112 4.93889,1.05833 -0.35278,1.76389 3.527781,1.76389 c 0.35277,-3.41095 -1.05532,-9.23219 -4.233341,-10.93611 v -0.35278 c 5.058661,0.0145 3.359901,3.05225 6.702781,5.29166 -0.46467,2.56387 1.08911,4.46234 2.06903,6.70278 0.69736,1.59444 -0.99984,4.34471 -0.0719,5.38259 2.41283,2.69857 6.81085,-2.34857 8.64606,-3.24333 0.99242,-0.48387 2.42718,0.33768 3.22344,-0.55258 0.76703,-0.85757 0.40637,-2.91996 0.95,-4.05612 h 0.35278 c 0.0865,1.77673 1.28959,3.15816 1.36401,4.93889 0.0993,2.37652 -0.85556,4.64242 -0.59721,7.05555 0.28411,2.65384 2.06977,4.49391 -0.0613,6.70278 7.77308,-3.69863 9.20888,-12.0961 9.17195,-19.75556 -0.0116,-2.4116 -0.12471,-6.98954 -2.50729,-8.35451 -3.68408,-2.1106 -7.51849,3.81594 -11.25077,4.12118 v -0.35278 c 3.23652,-2.47307 3.09102,-5.08595 4.7018,-8.46666 0.51186,-1.0743 1.91924,-2.31142 1.93456,-3.52751 0.0389,-3.09016 -3.30036,-2.94525 -0.99192,-6.35027 -6.34231,1.14879 -3.73502,8.07079 -7.76111,10.58333 l -1.05833,-12.34722 c -4.13326,2.03291 -3.51126,7.07622 -9.525,5.64445 v -0.35278 c 0.84029,-0.29449 1.67729,-0.5668 2.33117,-1.20614 5.69529,-5.56864 -5.945491,-9.43445 -4.09506,-2.67442 -1.01472,-0.51513 -1.44328,-1.30346 -2.250331,-2.07312 -1.19506,-1.13969 -3.42311,-0.56183 -2.64038,1.36349 0.83915,2.06409 3.448711,1.88551 3.832381,4.23741 h -0.35278 c -1.096421,-1.11533 -2.051831,-0.97437 -3.527781,-0.70556 0.91271,1.67291 2.11976,3.41619 0,4.58612 -0.75661,-2.39359 -2.62484,-1.37896 -4.02373,-0.0759 -2.82177,2.62836 -3.20548,6.5259 -6.5596,8.89539 l 1.05833,-5.64444 -3.67939,4.58284 -5.29603,3.53131 -2.36437,7.74696 -8.33546,5.38477 -1.41437,5.87118 -2.89927,4.98571 h -0.35278 c -0.96912,-4.78565 -7.10001,-0.3228 -8.11388,-5.29166 h 0.35276 c 1.49509,1.6881 4.20119,1.33755 4.92393,-1.07249 0.37019,-1.23448 -0.31014,-2.92046 -0.33781,-4.21918 l 1.41112,0.70555 -0.70556,-3.52777 2.82222,1.05833 -0.70555,-2.82222 0.35277,-0.35278 2.71008,0.41757 1.63541,-3.44286 7.29618,-8.61638 c -8.35945,-2.09355 -8.2675,8.08768 -14.46389,10.58334 v -0.35278 c 3.74321,-3.27536 3.20761,-8.62667 6.48774,-11.85535 1.39347,-1.37161 3.10095,-0.93048 4.80115,-1.42254 2.13564,-0.61809 3.44381,-2.21205 4.58611,-4.00822 l -0.35278,-0.35278 -10.58333,0.35278 c -1.78742,-5.14578 -6.87223,-2.79383 -10.58333,-3.88056 l -1.05834,3.88056 c -0.81204,-0.50835 -1.83206,-1.74679 -2.79908,-1.85018 -2.19614,-0.2348 -1.78703,4.12709 -1.78703,5.37796 l -2.11666,-2.82223 -3.175,4.58611 -1.76389,-6.70277 -3.175,0.35278 2.11666,-8.46667 c 1.69325,0.22228 2.57989,-0.11027 3.175,-1.76389 3.05087,1.32941 4.94884,-0.13277 8.11389,-0.26485 1.16703,-0.0487 2.06316,0.61278 3.175,0.79266 3.79427,0.61386 14.76335,2.38643 15.16945,-2.99725 2.11228,0.0423 6.28109,-0.98354 7.45841,-2.83774 0.68675,-1.08158 0.31925,-2.74912 1.22112,-3.65218 0.81332,-0.8144 2.19626,-0.59314 3.11185,-1.38334 4.95079,-4.27284 9.06022,-8.37695 15.37251,-10.67018 10.275181,-3.73294 20.124901,3.21039 30.338881,-0.0642 5.42304,-1.73864 9.1564,-5.986689 9.17222,-11.731214 h 0.35278 c 2.29073,6.766825 0.56822,13.332194 -6.35,16.227774 v 0.70556 c 1.53852,0.55902 2.93056,1.49236 4.58611,1.69856 5.30416,0.66064 7.84516,-4.14246 8.46667,-8.75412 h 0.35278 c 0.22766,5.30234 0.83165,11.17378 -3.52778,15.16945 v 0.35278 l 3.88056,2.82222 c 2.30911,-4.94569 4.64923,-9.17702 4.77833,-14.81671 0.17396,-7.59962 -3.46636,-15.183363 -7.86728,-21.166665 -1.22365,-1.663625 -3.12335,-4.753036 -5.05648,-5.597892 -1.02186,-0.446592 -2.08673,0.261999 -3.14342,0.131742 -2.55839,-0.315355 -3.96618,-1.391893 -6.70278,-0.88385 1.61972,-1.252486 3.70547,-1.190474 5.64444,-1.527081 7.69397,-1.335707 11.75839,1.583818 18.69723,4.551272 2.92871,1.252486 6.44072,1.844892 9.17222,3.441769 16.41624,9.597218 27.8172,29.487265 30.89854,47.861815 1.2273,7.31856 0.9824,14.396 -1.27528,21.51945 -0.73845,2.32998 -1.69782,5.72676 -3.87048,7.05555 M 136.04996,75.915564 c -0.27282,0 -0.0565,0.175614 0.1176,0.117585 l -0.1176,-0.117585 m -3.175,-0.117596 v 0.352777 h 1.41111 l -1.41111,-0.352777 m 4.58611,0.352777 v 0.352778 l 5.64445,5.644445 c -1.03932,-2.184234 -3.10996,-5.572324 -5.64445,-5.997223 m -4.58611,27.163885 -2.82222,2.11667 2.82222,-2.11667 m -32.10277,18.34445 6.70277,0.35278 c -1.17358,-2.23638 -5.36834,-2.63699 -6.70277,-0.35278 m -4.938891,0.70555 4.586111,0.70556 c -0.40987,-2.38243 -3.381841,-2.67404 -4.586111,-0.70556 m -23.63612,-0.70555 v 0.35278 h 4.58612 c -1.34642,-1.02005 -3.01107,-0.72777 -4.58612,-0.35278 m 38.452781,1.76389 v 0.35278 c 1.35765,0.0746 2.72262,0.48163 3.175,-1.05834 l -3.175,0.70556 m -38.805551,-0.35278 c 1.04421,1.57386 2.9095,1.66079 3.88055,0 h -3.88055 m 76.200001,1.41111 v 0.35278 l 5.70433,2.20894 4.52622,0.82424 5.29167,2.61126 c -2.11844,-3.89659 -6.01371,-3.12919 -9.51112,-4.44456 -2.47936,-0.93248 -3.08262,-2.62484 -6.0111,-1.55266 m -30.69167,2.11667 c 1.81008,-0.73623 4.99033,-0.17721 5.64444,-2.11667 -2.37183,0.002 -4.12649,0.10635 -5.64444,2.11667 m 27.86944,-1.41111 c 0.76117,1.17555 1.66782,1.10772 2.46945,0 h -2.46945 m 23.63611,2.46944 5.29167,4.03163 8.11389,6.90448 c -3.03368,-4.14685 -8.08484,-9.90717 -13.40556,-10.93611 m -61.38333,0.70556 -1.05833,1.41111 1.05833,-1.41111 m 14.46389,0.35277 2.11667,2.46945 -2.11667,-2.46945 m -68.791671,1.41112 c 4.0775,-0.19621 10.02465,-1.36799 12.34723,3.175 h 11.28889 c -1.20921,-1.47348 -2.59371,-0.26411 -4.23334,-0.54878 -1.82411,-0.31669 -4.6653,-0.33997 -6.35,-0.90153 -2.75564,-0.91855 -4.12524,-3.13581 -7.40833,-3.13581 -1.48744,0 -5.30763,-0.1607 -5.64445,1.41112 m 39.15834,1.05833 4.23333,0.35278 c -1.03817,-1.97808 -2.81853,-1.95469 -4.23333,-0.35278 m -43.74445,-0.35278 v 0.35278 l 3.88056,1.05833 c -0.70811,-1.94175 -2.07056,-2.05026 -3.88056,-1.41111 m -9.17222,1.05833 3.175,0.70556 c -0.4996,-1.52006 -2.19493,-2.17365 -3.175,-0.70556 m 75.141671,0.35278 v 2.46945 h 0.35278 l -0.35278,-2.46945 m -23.636111,0 -0.70556,1.05834 0.70556,-1.05834 m -46.56667,2.46945 3.175,0.70555 c -0.4205,-1.92704 -1.87284,-2.03508 -3.175,-0.70555 m 40.21667,1.41111 h 3.175 c -0.51186,-1.74239 -2.36454,-1.29831 -3.175,0 m -41.15742,0.23518 0.11761,0.23519 -0.11761,-0.23519 m 78.199081,3.99815 c 2.97683,-0.94397 4.8579,-0.62747 7.76111,0.35278 -1.47975,-2.96028 -5.77869,-2.62252 -7.76111,-0.35278 m -51.858331,-0.35278 v 0.35278 l 5.29167,0.35278 c -1.13808,-1.94135 -3.41945,-1.05829 -5.29167,-0.70556 m 12.34722,-0.35278 -3.88055,1.41112 v 0.35277 c 1.24409,-0.099 3.92142,-0.137 3.88055,-1.76389 m -13.40555,0.70556 -1.76389,1.41111 2.11666,-1.05833 -0.35277,-0.35278 m 51.858331,0.70556 0.35278,0.35277 -0.35278,-0.35277 m -1.41111,1.76388 -0.70556,1.05834 0.70556,-1.05834 m 35.27778,4.93889 4.93888,-0.70555 c -1.60536,-0.71919 -3.84791,-0.8577 -4.93888,0.70555 m -61.383341,-0.35277 3.175,1.76388 -3.175,-1.76388 m -45.15555,1.05833 2.11666,3.52778 -1.76388,-0.35278 v 1.41111 h -0.35278 v -4.58611 m 11.64166,3.52778 -0.35277,0.35277 0.35277,-0.35277 m -0.70555,0.35277 -0.35278,0.35278 0.35278,-0.35278 m 95.602781,1.76389 3.52777,-0.35277 v -0.70556 c -1.47644,-0.1519 -2.64127,-0.27278 -3.52777,1.05833 m -81.491671,-1.41111 -7.05556,3.88056 c 2.07205,-0.56558 6.46736,-1.55595 7.05556,-3.88056 m -15.40463,0.1176 -0.23519,0.11758 0.23519,-0.11758 m -1.5287,0.23518 -0.35278,0.35278 0.35278,-0.35278 m -0.70556,0 v 0.35278 h -1.05833 l 1.05833,-0.35278 m 38.80556,1.76389 v 0.35278 l 4.93889,0.70555 c -0.87957,-2.29884 -2.98792,-1.5631 -4.93889,-1.05833 m -3.52778,-0.35278 -2.46944,0.70556 v 0.35277 c 0.80565,-0.0135 2.90897,0.0454 2.46944,-1.05833 m -3.52778,0.35278 0.35278,0.35278 -0.35278,-0.35278 m 12.34722,1.05833 2.116671,3.52778 7.05556,2.11667 -9.172231,-5.64445 m 87.136111,0.70556 0.35278,0.35278 -0.35278,-0.35278 m -32.45555,3.88055 0.35278,0.35278 -0.35278,-0.35278 m -41.98056,1.05834 h 3.52778 v -0.70556 c -1.44866,-0.33183 -2.41513,-0.33595 -3.52778,0.70556 m -49.036111,2.46944 1.41111,-0.35278 -1.41111,0.35278 m 46.566671,0 -0.70556,1.05833 0.70556,-1.05833 m -51.152781,1.05833 v 0.35278 l 4.23333,0.35278 c -0.67112,-2.02184 -2.62952,-1.21395 -4.23333,-0.70556 m 14.46389,12.34723 c 2.56679,-1.02645 4.88039,-2.50504 7.76111,-2.45039 14.94838,0.28357 19.999521,18.65121 33.866671,20.44205 -0.87333,-1.584 -2.33233,-1.31799 -3.88056,-1.93292 -1.97155,-0.78306 -3.84431,-2.25052 -5.44137,-3.62687 -1.68624,-1.4532 -3.2164,-3.09797 -4.78918,-4.67076 -5.823881,-5.82388 -19.640701,-17.42775 -27.516671,-7.76111 m 64.911111,7.40833 -0.35278,0.70556 0.35278,-0.70556 m -1.05833,1.05833 -1.05834,1.05834 1.41111,-0.70556 -0.35277,-0.35278 m -1.76389,1.05834 -0.70556,1.05833 0.70556,-1.05833 m -1.41111,1.05833 -4.58612,3.175 c 1.47809,-0.54115 4.13297,-1.57159 4.58612,-3.175 m 38.80555,3.88056 c 4.36529,-2.23036 8.04429,-1.68528 12.7,-1.05834 -2.99374,-1.88106 -10.74683,-2.57292 -12.7,1.05834 M 66.552739,191.50908 c 3.08245,-0.57193 4.89552,0.5859 7.76111,1.41111 -2.01215,-1.90432 -5.4608,-3.78493 -7.76111,-1.41111 m 118.886111,-0.70556 0.35278,0.35278 -0.35278,-0.35278 m -119.944441,5.99722 v 0.35278 l 5.29166,0.70556 c -1.463,-1.8456 -3.21497,-2.05748 -5.29166,-1.05834 m 59.266661,0.35278 v 0.70556 l 2.46945,1.41111 c 0.63746,-1.83499 -0.9162,-2.34763 -2.46945,-2.11667 m -8.81944,3.52778 8.46666,-2.11667 c -1.7964,-0.43601 -7.15118,0.76822 -8.46666,2.11667 m -10.23056,3.175 3.52778,1.41111 v 1.41111 c 2.09827,-1.5108 3.20654,-1.26283 5.64445,-0.70555 -1.25417,-2.29493 -3.60501,-1.34734 -5.64445,-0.70556 -0.80695,-1.28045 -2.08836,-1.34819 -3.52778,-1.41111 m 26.45833,5.64444 v 0.35278 l 6.35,0.70556 v -0.70556 l -6.35,-0.35278 m -15.52221,-0.35277 c 0.91155,1.94912 2.47062,3.1446 4.5861,3.52777 l -4.5861,-3.52777 m 11.64166,1.05833 v 0.35278 l 2.46944,-0.35278 h -2.46944 m -7.05556,4.23333 3.88056,1.05834 c -0.92373,-1.59707 -2.40393,-2.51691 -3.88056,-1.05834 m 7.76111,2.11667 v 0.35278 l 3.88056,0.70555 c -1.12448,-1.35 -2.21871,-1.54368 -3.88056,-1.05833 m -3.52777,0 c 0.70907,1.12483 1.54302,1.26067 2.82222,1.05833 l -2.82222,-1.05833 m -59.266671,2.11667 0.35278,0.35277 -0.35278,-0.35277 m 68.438891,0.35277 v 0.35278 l 3.175,1.05834 -3.175,-1.41112 m -68.086111,0.35278 c 5.63718,10.11336 17.64007,17.13642 28.22222,20.95979 3.83812,1.38673 7.881411,2.8525 11.994451,3.0291 v -0.35278 c -11.272511,-1.45571 -22.450021,-7.36667 -31.044451,-14.61876 -3.2588,-2.74983 -5.81854,-6.45256 -9.17222,-9.01735 m 63.617591,5.87963 0.11759,0.23519 -0.11759,-0.23519 m -1.5287,17.05093 0.35277,0.35278 -0.35277,-0.35278 m -2.11667,0.35278 v 0.35277 h 1.05833 l -1.05833,-0.35277 m -1.41111,0.47036 c -0.27282,0 -0.0565,0.17563 0.1176,0.11761 l -0.1176,-0.11761 m -2.11667,0.23519 0.35278,0.35278 -0.35278,-0.35278 m -15.87499,0 v 0.35278 h 1.76388 l -1.76388,-0.35278 m 5.29166,0.35278 0.35278,0.35278 -0.35278,-0.35278 m -1.76389,0 0.35278,0.35278 z"
       id="path1" /></g></svg>
